<svg width="550" height="160" viewBox="0 0 550 160" fill="none" xmlns="http://www.w3.org/2000/svg">
<rect width="550" height="160" rx="10" fill="#393939"/>
<path d="M296.384 80.7097L294.969 80.2132C294.699 80.9807 295.091 81.823 295.851 82.1119L296.384 80.7097ZM285.423 69.4876L283.974 69.8735C284.08 70.2714 284.344 70.6082 284.706 70.805C285.068 71.0019 285.494 71.0414 285.886 70.9144L285.423 69.4876ZM255.576 76.2818L256.046 77.7064C256.76 77.4711 257.189 76.7437 257.05 76.0049L255.576 76.2818ZM273.5 93.125C273.5 93.9534 274.172 94.625 275 94.625C275.828 94.625 276.5 93.9534 276.5 93.125L273.5 93.125ZM275 73.4375L276.061 72.3768C275.475 71.7911 274.525 71.7911 273.939 72.3768L275 73.4375ZM282.689 83.2482C283.275 83.8339 284.225 83.8339 284.811 83.2482C285.396 82.6624 285.396 81.7126 284.811 81.1268L282.689 83.2482ZM265.189 81.1268C264.604 81.7126 264.604 82.6624 265.189 83.2482C265.775 83.8339 266.725 83.8339 267.311 83.2482L265.189 81.1268ZM259.688 100.375C253.267 100.375 248.062 95.1703 248.062 88.75H245.062C245.062 96.8272 251.61 103.375 259.688 103.375V100.375ZM292.5 100.375H259.688V103.375H292.5V100.375ZM301.938 90.9375C301.938 96.1497 297.712 100.375 292.5 100.375V103.375C299.369 103.375 304.938 97.8065 304.938 90.9375H301.938ZM295.851 82.1119C299.411 83.4646 301.938 86.9079 301.938 90.9375H304.938C304.938 85.6215 301.603 81.0881 296.917 79.3075L295.851 82.1119ZM295.375 77.8125C295.375 78.6565 295.231 79.4638 294.969 80.2132L297.799 81.2062C298.173 80.1421 298.375 78.9993 298.375 77.8125H295.375ZM288.125 70.5625C292.129 70.5625 295.375 73.8084 295.375 77.8125H298.375C298.375 72.1516 293.786 67.5625 288.125 67.5625V70.5625ZM285.886 70.9144C286.589 70.6864 287.341 70.5625 288.125 70.5625V67.5625C287.023 67.5625 285.959 67.7369 284.96 68.0608L285.886 70.9144ZM270.625 59.625C277.019 59.625 282.402 63.9714 283.974 69.8735L286.873 69.1017C284.96 61.9188 278.413 56.625 270.625 56.625V59.625ZM256.812 73.4375C256.812 65.8091 262.997 59.625 270.625 59.625V56.625C261.34 56.625 253.812 64.1522 253.812 73.4375H256.812ZM257.05 76.0049C256.894 75.1741 256.812 74.316 256.812 73.4375H253.812C253.812 74.5028 253.912 75.5462 254.102 76.5587L257.05 76.0049ZM248.062 88.75C248.062 83.6039 251.407 79.235 256.046 77.7064L255.107 74.8572C249.275 76.779 245.062 82.2706 245.062 88.75H248.062ZM276.5 93.125L276.5 73.4375L273.5 73.4375L273.5 93.125L276.5 93.125ZM284.811 81.1268L276.061 72.3768L273.939 74.4982L282.689 83.2482L284.811 81.1268ZM273.939 72.3768L265.189 81.1268L267.311 83.2482L276.061 74.4982L273.939 72.3768Z" fill="#171717"/>
</svg>
