<svg width="496" height="80" viewBox="0 0 496 80" fill="none" xmlns="http://www.w3.org/2000/svg">
<path fill-rule="evenodd" clip-rule="evenodd" d="M0 24.2227L18.2063 34.9552L29.0957 28.5426C37.0927 23.8266 47.6383 21.4723 58.1839 21.4723C68.7294 21.4723 79.2825 23.8266 87.287 28.5426C90.5456 30.4634 93.1465 32.6383 95.0747 34.9552C97.8774 31.5845 99.2825 27.9073 99.2825 24.2227C99.2825 18.0045 95.2915 11.7862 87.287 7.06278C79.2825 2.35426 68.7294 0 58.1839 0C47.6383 0 37.0852 2.35426 29.0957 7.07025L14.5366 15.6502L0 24.2227Z" fill="#F4511E"/>
<path fill-rule="evenodd" clip-rule="evenodd" d="M29.0956 28.5426L18.2062 34.9551L29.1031 41.3752L58.1913 58.5201L72.7279 49.9476L87.287 41.3677C90.5455 39.4469 93.1464 37.272 95.0747 34.9551C93.1464 32.6382 90.5455 30.4633 87.287 28.5426C79.2899 23.8266 68.7294 21.4723 58.1838 21.4723C47.6382 21.4723 37.0852 23.8266 29.0956 28.5426Z" fill="#000058"/>
<path fill-rule="evenodd" clip-rule="evenodd" d="M58.1913 58.5276L29.1031 41.3827L18.2063 34.9626L14.5366 37.13L0 45.6951L29.1031 62.855L58.1913 80L72.728 71.4275L87.287 62.8475C95.284 58.1315 99.2825 51.9208 99.2825 45.7025C99.2825 42.0179 97.8849 38.3333 95.0747 34.9626C93.1465 37.2795 90.5456 39.4544 87.287 41.3752L72.728 49.9551L58.1913 58.5276Z" fill="#01B2FE"/>
<path d="M123.952 61.9223V0.904929H142.195C146.249 0.904929 149.931 1.63576 153.24 3.09742C156.55 4.5315 159.39 6.58609 161.762 9.26121C164.134 11.9363 165.968 15.1492 167.264 18.8999C168.56 22.623 169.208 26.7735 169.208 31.3516C169.208 35.9296 168.56 40.0939 167.264 43.8446C165.968 47.5677 164.134 50.7806 161.762 53.4833C159.39 56.186 156.55 58.2682 153.24 59.7298C149.931 61.1915 146.249 61.9223 142.195 61.9223H123.952ZM134.873 58.6543L129.95 53.2351H140.789C144.098 53.2351 147.049 52.3526 149.641 50.5876C152.261 48.7949 154.33 46.2715 155.846 43.0173C157.363 39.7354 158.122 35.8469 158.122 31.3516C158.122 26.8287 157.363 22.9401 155.846 19.6859C154.33 16.4316 152.261 13.9358 149.641 12.1983C147.049 10.4609 144.098 9.59215 140.789 9.59215H129.95L134.873 4.17298V58.6543Z" fill="white"/>
<path d="M189.211 62.8324C185.93 62.8324 183.048 62.3222 180.566 61.3018C178.084 60.2538 176.139 58.7508 174.733 56.7927C173.326 54.8346 172.623 52.4767 172.623 49.7188C172.623 46.7128 173.437 44.2445 175.064 42.314C176.718 40.3559 178.938 38.8529 181.724 37.8049C184.509 36.7294 187.598 36.0399 190.99 35.7365C196.01 35.2401 199.512 34.7713 201.498 34.33C203.511 33.8612 204.518 33.1166 204.518 32.0962C204.518 32.0686 204.518 32.0548 204.518 32.0548C204.518 32.0272 204.518 32.0134 204.518 32.0134C204.518 30.083 203.649 28.5937 201.911 27.5457C200.174 26.4978 197.719 25.9738 194.548 25.9738C191.211 25.9738 188.646 26.5667 186.854 27.7526C185.088 28.9109 184.206 30.7586 184.206 33.2958H173.45C173.45 29.8485 174.36 26.939 176.181 24.5673C178.028 22.1679 180.552 20.3478 183.751 19.1067C186.95 17.8657 190.577 17.2452 194.631 17.2452C198.409 17.2452 201.87 17.8105 205.014 18.9413C208.158 20.072 210.681 21.7818 212.584 24.0708C214.487 26.3599 215.439 29.2142 215.439 32.634C215.439 33.2131 215.439 33.7923 215.439 34.3714C215.439 34.9506 215.439 35.5297 215.439 36.1089V52.6559C215.439 53.7039 215.466 54.7381 215.521 55.7585C215.604 56.7513 215.756 57.6476 215.976 58.4474C216.252 59.3299 216.583 60.0745 216.969 60.6813C217.355 61.288 217.659 61.7017 217.879 61.9223H207.124C206.931 61.7293 206.655 61.3569 206.296 60.8054C205.965 60.2262 205.662 59.5643 205.386 58.8197C205.11 57.9924 204.904 57.1099 204.766 56.1722C204.628 55.2069 204.559 54.1452 204.559 52.9869L206.71 54.4761C205.883 56.1584 204.614 57.6339 202.904 58.9025C201.222 60.1435 199.209 61.1087 196.864 61.7982C194.52 62.4877 191.969 62.8324 189.211 62.8324ZM191.859 54.2693C194.12 54.2693 196.216 53.8832 198.147 53.111C200.077 52.3388 201.636 51.1529 202.821 49.5534C204.007 47.9262 204.6 45.8441 204.6 43.3068V37.4326L207.248 40.4111C205.483 41.073 203.359 41.6246 200.877 42.0658C198.395 42.4795 195.885 42.8104 193.348 43.0586C190.094 43.362 187.639 43.9274 185.985 44.7547C184.358 45.5821 183.544 46.9334 183.544 48.8087C183.544 50.6289 184.234 51.9941 185.612 52.9041C186.991 53.8142 189.074 54.2693 191.859 54.2693Z" fill="white"/>
<path d="M221.403 80V17.9898H232.283V80H221.403ZM246.141 62.8324C242.721 62.8324 239.55 61.9499 236.627 60.1849C233.731 58.3923 231.387 55.9516 229.594 52.8628C227.829 49.774 226.947 46.2991 226.947 42.4381C226.947 42.3278 226.947 42.2313 226.947 42.1485C226.947 42.0382 226.947 41.9417 226.947 41.859L232.324 41.7349C232.324 41.79 232.324 41.859 232.324 41.9417C232.324 42.0244 232.324 42.0934 232.324 42.1485C232.324 44.2997 232.862 46.2164 233.938 47.8987C235.013 49.5534 236.406 50.8633 238.116 51.8286C239.853 52.7663 241.701 53.2351 243.659 53.2351C246.831 53.2351 249.533 52.1457 251.767 49.967C254.001 47.7883 255.118 44.41 255.118 39.8319C255.118 35.2263 254.001 31.8618 251.767 29.7382C249.561 27.5871 246.858 26.5115 243.659 26.5115C241.729 26.5115 239.895 26.9804 238.157 27.918C236.447 28.8281 235.041 30.0967 233.938 31.7239C232.862 33.351 232.324 35.2539 232.324 37.4326L226.947 37.1844C226.947 33.2958 227.829 29.8485 229.594 26.8425C231.387 23.8364 233.731 21.4923 236.627 19.81C239.55 18.1001 242.721 17.2452 246.141 17.2452C249.699 17.2452 253.008 18.1139 256.069 19.8513C259.158 21.5888 261.64 24.1398 263.516 27.5044C265.419 30.8689 266.37 34.9781 266.37 39.8319C266.37 44.8237 265.446 49.0294 263.598 52.4491C261.751 55.8688 259.296 58.4612 256.235 60.2262C253.174 61.9637 249.809 62.8324 246.141 62.8324Z" fill="white"/>
<path d="M271.238 80V17.9898H282.118V80H271.238ZM295.976 62.8324C292.557 62.8324 289.385 61.9499 286.462 60.1849C283.566 58.3923 281.222 55.9516 279.429 52.8628C277.664 49.774 276.782 46.2991 276.782 42.4381C276.782 42.3278 276.782 42.2313 276.782 42.1485C276.782 42.0382 276.782 41.9417 276.782 41.859L282.16 41.7349C282.16 41.79 282.16 41.859 282.16 41.9417C282.16 42.0244 282.16 42.0934 282.16 42.1485C282.16 44.2997 282.697 46.2164 283.773 47.8987C284.848 49.5534 286.241 50.8633 287.951 51.8286C289.688 52.7663 291.536 53.2351 293.494 53.2351C296.666 53.2351 299.368 52.1457 301.602 49.967C303.836 47.7883 304.953 44.41 304.953 39.8319C304.953 35.2263 303.836 31.8618 301.602 29.7382C299.396 27.5871 296.693 26.5115 293.494 26.5115C291.564 26.5115 289.73 26.9804 287.992 27.918C286.283 28.8281 284.876 30.0967 283.773 31.7239C282.697 33.351 282.16 35.2539 282.16 37.4326L276.782 37.1844C276.782 33.2958 277.664 29.8485 279.429 26.8425C281.222 23.8364 283.566 21.4923 286.462 19.81C289.385 18.1001 292.557 17.2452 295.976 17.2452C299.534 17.2452 302.843 18.1139 305.905 19.8513C308.993 21.5888 311.475 24.1398 313.351 27.5044C315.254 30.8689 316.205 34.9781 316.205 39.8319C316.205 44.8237 315.281 49.0294 313.434 52.4491C311.586 55.8688 309.131 58.4612 306.07 60.2262C303.009 61.9637 299.644 62.8324 295.976 62.8324Z" fill="white"/>
<path d="M340.847 62.8324C336.518 62.8324 332.739 62.1429 329.513 60.764C326.286 59.3851 323.776 57.3167 321.984 54.5589C320.191 51.7734 319.295 48.3261 319.295 44.2169C319.295 43.7481 319.295 43.3344 319.295 42.9759C319.295 42.5898 319.295 42.1623 319.295 41.6935H330.175C330.175 42.1072 330.175 42.4933 330.175 42.8518C330.175 43.1827 330.175 43.5688 330.175 44.0101C330.175 47.3195 331.071 49.8016 332.863 51.4563C334.684 53.0834 337.359 53.897 340.889 53.897C344.446 53.897 347.163 53.304 349.038 52.1182C350.941 50.9323 351.893 49.0294 351.893 46.4094C351.893 44.5065 351.244 42.8932 349.948 41.5694C348.68 40.218 346.928 39.0322 344.695 38.0118C342.461 36.9914 339.924 36.0399 337.083 35.1574C333.884 34.1646 330.974 32.8822 328.354 31.3102C325.734 29.7382 323.638 27.7526 322.066 25.3532C320.494 22.9539 319.708 20.003 319.708 16.5006C319.708 12.9981 320.605 10.0196 322.397 7.56513C324.218 5.11065 326.7 3.2491 329.844 1.98049C333.015 0.684299 336.614 0.0362062 340.641 0.0362062C344.86 0.0362062 348.569 0.698089 351.768 2.02186C354.995 3.34562 357.519 5.31748 359.339 7.93744C361.159 10.5574 362.069 13.8254 362.069 17.7416C362.069 18.2656 362.069 18.7206 362.069 19.1067C362.069 19.4928 362.069 19.9341 362.069 20.4305H351.148C351.148 20.072 351.148 19.7134 351.148 19.3549C351.148 18.9688 351.148 18.5965 351.148 18.238C351.148 15.0941 350.293 12.7775 348.583 11.2882C346.873 9.77141 344.281 9.013 340.806 9.013C337.414 9.013 334.808 9.60594 332.988 10.7918C331.167 11.9777 330.257 13.8668 330.257 16.4592C330.257 18.3897 330.878 20.003 332.119 21.2992C333.36 22.5954 335.056 23.7261 337.207 24.6914C339.386 25.629 341.854 26.5805 344.612 27.5457C348.28 28.7592 351.451 30.1381 354.126 31.6825C356.802 33.1993 358.87 35.1022 360.332 37.3913C361.793 39.6527 362.524 42.5346 362.524 46.0371C362.524 49.6223 361.614 52.6697 359.794 55.1794C358.001 57.6614 355.478 59.5643 352.224 60.8881C348.997 62.1843 345.205 62.8324 340.847 62.8324Z" fill="white"/>
<path d="M387.703 62.7497C386.131 62.7497 384.531 62.598 382.904 62.2946C381.277 61.9913 379.788 61.4259 378.436 60.5985C377.085 59.7712 375.996 58.5577 375.168 56.9582C374.341 55.3586 373.927 53.2489 373.927 50.6289C373.927 50.0222 373.927 49.4155 373.927 48.8087C373.927 48.1744 373.927 47.5263 373.927 46.8645V26.677H363.544V17.9898H367.764C369.198 17.9898 370.328 17.9346 371.156 17.8243C371.983 17.6864 372.59 17.3831 372.976 16.9142C373.362 16.4454 373.61 15.7146 373.721 14.7217C373.858 13.7013 373.927 12.2948 373.927 10.5022V3.51109H384.848V17.9898H397.921V26.677H384.848V44.2997C384.848 44.8237 384.848 45.3476 384.848 45.8716C384.848 46.368 384.848 46.8507 384.848 47.3195C384.848 49.3603 385.097 51.0012 385.593 52.2423C386.089 53.4833 387.262 54.1038 389.109 54.1038C389.992 54.1038 390.819 54.0211 391.591 53.8556C392.391 53.6901 392.984 53.5247 393.37 53.3592V61.8809C392.846 62.074 392.088 62.267 391.095 62.4601C390.102 62.6531 388.971 62.7497 387.703 62.7497Z" fill="white"/>
<path d="M422.381 62.791C417.748 62.791 413.666 61.8258 410.136 59.8953C406.606 57.9372 403.835 55.2345 401.821 51.7872C399.836 48.3399 398.843 44.3962 398.843 39.9561C398.843 35.4883 399.836 31.5584 401.821 28.1663C403.835 24.7465 406.606 22.0714 410.136 20.1409C413.666 18.2104 417.748 17.2452 422.381 17.2452C427.014 17.2452 431.096 18.2104 434.626 20.1409C438.156 22.0714 440.914 24.7465 442.9 28.1663C444.913 31.5584 445.919 35.4883 445.919 39.9561C445.919 44.3962 444.913 48.3399 442.9 51.7872C440.914 55.2345 438.156 57.9372 434.626 59.8953C431.096 61.8258 427.014 62.791 422.381 62.791ZM422.381 53.897C424.891 53.897 427.083 53.3178 428.959 52.1595C430.834 51.0012 432.296 49.3879 433.344 47.3195C434.392 45.2235 434.916 42.7691 434.916 39.9561C434.916 37.143 434.392 34.7161 433.344 32.6753C432.296 30.6069 430.834 29.0074 428.959 27.8767C427.083 26.746 424.891 26.1806 422.381 26.1806C419.899 26.1806 417.707 26.746 415.804 27.8767C413.928 29.0074 412.467 30.6069 411.419 32.6753C410.371 34.7161 409.847 37.143 409.847 39.9561C409.847 42.7691 410.371 45.2235 411.419 47.3195C412.467 49.3879 413.928 51.0012 415.804 52.1595C417.707 53.3178 419.899 53.897 422.381 53.897Z" fill="white"/>
<path d="M450.784 80V17.9898H461.664V80H450.784ZM475.522 62.8324C472.102 62.8324 468.931 61.9499 466.007 60.1849C463.112 58.3923 460.767 55.9516 458.975 52.8628C457.21 49.774 456.327 46.2991 456.327 42.4381C456.327 42.3278 456.327 42.2313 456.327 42.1485C456.327 42.0382 456.327 41.9417 456.327 41.859L461.705 41.7349C461.705 41.79 461.705 41.859 461.705 41.9417C461.705 42.0244 461.705 42.0934 461.705 42.1485C461.705 44.2997 462.243 46.2164 463.318 47.8987C464.394 49.5534 465.787 50.8633 467.497 51.8286C469.234 52.7663 471.082 53.2351 473.04 53.2351C476.211 53.2351 478.914 52.1457 481.148 49.967C483.382 47.7883 484.499 44.41 484.499 39.8319C484.499 35.2263 483.382 31.8618 481.148 29.7382C478.942 27.5871 476.239 26.5115 473.04 26.5115C471.109 26.5115 469.275 26.9804 467.538 27.918C465.828 28.8281 464.422 30.0967 463.318 31.7239C462.243 33.351 461.705 35.2539 461.705 37.4326L456.327 37.1844C456.327 33.2958 457.21 29.8485 458.975 26.8425C460.767 23.8364 463.112 21.4923 466.007 19.81C468.931 18.1001 472.102 17.2452 475.522 17.2452C479.08 17.2452 482.389 18.1139 485.45 19.8513C488.539 21.5888 491.021 24.1398 492.896 27.5044C494.799 30.8689 495.751 34.9781 495.751 39.8319C495.751 44.8237 494.827 49.0294 492.979 52.4491C491.131 55.8688 488.677 58.4612 485.616 60.2262C482.554 61.9637 479.19 62.8324 475.522 62.8324Z" fill="white"/>
</svg>