<svg width="130" height="180" viewBox="0 0 130 180" fill="none" xmlns="http://www.w3.org/2000/svg">
<rect width="130" height="180" rx="10" fill="#393939"/>
<path d="M89.8889 65.1111H40.1111C39.1681 65.1111 38.2637 65.4857 37.5969 66.1525C36.9301 66.8193 36.5555 67.7237 36.5555 68.6667V111.333C36.5555 112.276 36.9301 113.181 37.5969 113.847C38.2637 114.514 39.1681 114.889 40.1111 114.889H89.8889C90.8319 114.889 91.7362 114.514 92.403 113.847C93.0698 113.181 93.4444 112.276 93.4444 111.333V68.6667C93.4444 67.7237 93.0698 66.8193 92.403 66.1525C91.7362 65.4857 90.8319 65.1111 89.8889 65.1111ZM48.8578 72.2222C49.9126 72.2222 50.9437 72.535 51.8208 73.1211C52.6979 73.7071 53.3815 74.54 53.7851 75.5146C54.1888 76.4891 54.2944 77.5615 54.0886 78.596C53.8828 79.6306 53.3749 80.5809 52.629 81.3268C51.8831 82.0727 50.9328 82.5806 49.8982 82.7864C48.8637 82.9922 47.7913 82.8866 46.8168 82.4829C45.8422 82.0792 45.0093 81.3957 44.4233 80.5186C43.8372 79.6415 43.5244 78.6104 43.5244 77.5556C43.5244 76.1411 44.0863 74.7845 45.0865 73.7843C46.0867 72.7841 47.4433 72.2222 48.8578 72.2222ZM43.6667 106V98.7111L54.3333 87.9022C54.6664 87.5711 55.117 87.3853 55.5867 87.3853C56.0563 87.3853 56.5069 87.5711 56.84 87.9022L61.4444 92.4L47.7911 106H43.6667ZM86.3333 106H52.8222L63.8978 94.9244L73.4978 85.3244C73.8308 84.9933 74.2814 84.8075 74.7511 84.8075C75.2208 84.8075 75.6713 84.9933 76.0044 85.3244L86.3333 95.6533V106Z" fill="#171717"/>
</svg>
