<svg width="160" height="160" viewBox="0 0 160 160" fill="none" xmlns="http://www.w3.org/2000/svg">
<rect width="160" height="160" rx="10" fill="#393939"/>
<path d="M104.889 55.1111H55.1111C54.1681 55.1111 53.2637 55.4857 52.5969 56.1525C51.9301 56.8193 51.5555 57.7237 51.5555 58.6667V101.333C51.5555 102.276 51.9301 103.181 52.5969 103.847C53.2637 104.514 54.1681 104.889 55.1111 104.889H104.889C105.832 104.889 106.736 104.514 107.403 103.847C108.07 103.181 108.444 102.276 108.444 101.333V58.6667C108.444 57.7237 108.07 56.8193 107.403 56.1525C106.736 55.4857 105.832 55.1111 104.889 55.1111ZM63.8578 62.2222C64.9126 62.2222 65.9437 62.535 66.8208 63.1211C67.6979 63.7071 68.3815 64.54 68.7851 65.5146C69.1888 66.4891 69.2944 67.5615 69.0886 68.596C68.8828 69.6306 68.3749 70.5809 67.629 71.3268C66.8831 72.0727 65.9328 72.5806 64.8982 72.7864C63.8637 72.9922 62.7913 72.8866 61.8168 72.4829C60.8422 72.0793 60.0093 71.3957 59.4233 70.5186C58.8372 69.6415 58.5244 68.6104 58.5244 67.5556C58.5244 66.1411 59.0863 64.7845 60.0865 63.7843C61.0867 62.7841 62.4433 62.2222 63.8578 62.2222ZM58.6667 96V88.7111L69.3333 77.9022C69.6664 77.5711 70.117 77.3853 70.5867 77.3853C71.0563 77.3853 71.5069 77.5711 71.84 77.9022L76.4444 82.4L62.7911 96H58.6667ZM101.333 96H67.8222L78.8978 84.9244L88.4978 75.3244C88.8308 74.9933 89.2814 74.8075 89.7511 74.8075C90.2208 74.8075 90.6713 74.9933 91.0044 75.3244L101.333 85.6533V96Z" fill="#171717"/>
</svg>
